<svg width="24" height="18" viewBox="0 0 24 18" xmlns="http://www.w3.org/2000/svg"><path d="M7.515 9.058c.66.387 1.165.91 1.514 1.568.35.658.524 1.393.524 2.206 0 1.51-.495 2.749-1.485 3.716C7.078 17.516 5.884 18 4.485 18c-1.281 0-2.35-.426-3.203-1.277C.427 15.87 0 14.787 0 13.47c0-.658.126-1.306.379-1.945.252-.639.67-1.461 1.252-2.468L6.991 0h4.66L7.514 9.058zm12.35 0c.66.387 1.164.91 1.514 1.568.35.658.524 1.393.524 2.206 0 1.51-.495 2.749-1.486 3.716-.99.968-2.184 1.452-3.582 1.452-1.282 0-2.35-.426-3.204-1.277-.854-.852-1.281-1.936-1.281-3.252 0-.658.126-1.306.378-1.945.253-.639.67-1.461 1.253-2.468L19.34 0H24l-4.136 9.058z" fill="#124ED0" fill-rule="evenodd"/></svg>